# xmcd
#
# Track frame offsets:
#	150
#	13541
#	26809
#	38517
#	49403
#	62260
#	77228
#	96734
#	116234
#	129305
#	144779
#	161344
#	182105
#	206718
#	222803
#	235264
#
# Disc length: 3264 seconds
# Revision: 0
# Processed by: cddbd v1.5.2PL0 Copyright (c) Steve Scherf et al.
# Submitted via: dBpowerAMP V12.0
#
DISCID=db0cbe10
DTITLE=The Amanda Emblem Experiment - Who Is Amanda Emblem?
DYEAR=2018
DGENRE=Blues
TTITLE0=Count Me In 
TTITLE1=Stimulation
TTITLE2=Standing On A Level
TTITLE3=Open Up And Exit
TTITLE4=No One's Perfect
TTITLE5=No Coming Back
TTITLE6=Happy As A Billionaire
TTITLE7=Black And Blue (ft. Matt Taylor)
TTITLE8=Skin On Skin
TTITLE9=Heaven And Back
TTITLE10=Gotta Be An Easier Way (ft Ross Wilson)
TTITLE11=Once Bitten By Love
TTITLE12=Born To Ride
TTITLE13=Take It Off
TTITLE14=The Other Side
TTITLE15=Crime
EXTD=
EXTT0=
EXTT1=
EXTT2=
EXTT3=
EXTT4=
EXTT5=
EXTT6=
EXTT7=
EXTT8=
EXTT9=
EXTT10=
EXTT11=
EXTT12=
EXTT13=
EXTT14=
EXTT15=
PLAYORDER=
